<?xml version="1.0" standalone="no"?>
<!DOCTYPE svg PUBLIC "-//W3C//DTD SVG 20010904//EN"
 "http://www.w3.org/TR/2001/REC-SVG-20010904/DTD/svg10.dtd">
<svg version="1.0" xmlns="http://www.w3.org/2000/svg"
 width="225.000000pt" height="225.000000pt" viewBox="0 0 225.000000 225.000000"
 preserveAspectRatio="xMidYMid meet">

<g transform="translate(0.000000,225.000000) scale(0.100000,-0.100000)"
fill="#000000" stroke="none">
<path d="M502 1795 c25 -236 192 -440 426 -521 l67 -23 -250 0 -250 -1 0 -125
0 -125 250 -1 250 0 -55 -18 c-246 -78 -440 -323 -440 -553 l0 -48 120 0 120
0 5 28 c32 164 90 250 213 311 l42 21 0 -180 0 -180 125 0 125 0 2 180 3 180
42 -21 c103 -51 184 -161 205 -279 l10 -60 125 0 125 0 -7 53 c-20 164 -75
277 -185 388 -83 83 -142 121 -240 155 l-65 23 248 0 247 1 0 125 0 125 -247
1 -248 0 52 19 c165 59 303 178 371 321 39 82 55 136 68 232 l6 47 -125 0
-124 0 -13 -62 c-23 -121 -96 -220 -199 -273 l-51 -25 0 180 0 180 -125 0
-125 0 0 -181 0 -180 -51 27 c-108 59 -199 194 -199 294 l0 40 -128 0 -128 0
8 -75z"/>
</g>
</svg>
